<svg width="52" height="53" viewBox="0 0 52 53" fill="none" xmlns="http://www.w3.org/2000/svg">
<g clip-path="url(#clip0_524_437)">
<path d="M37.9229 34.2937H14.0138C12.4998 21.7937 21.8489 18.4715 25.9998 18.2937C36.7589 19.147 39.4998 28.7937 37.9229 34.2937Z" fill="#F9A920"/>
<path d="M31.1562 29.2654C31.1562 29.4508 31.1013 29.6321 30.9983 29.7862C30.8952 29.9404 30.7488 30.0606 30.5775 30.1315C30.4062 30.2025 30.2177 30.221 30.0359 30.1849C29.854 30.1487 29.6869 30.0594 29.5558 29.9283C29.4247 29.7972 29.3354 29.6301 29.2993 29.4483C29.2631 29.2664 29.2817 29.0779 29.3526 28.9066C29.4236 28.7353 29.5437 28.5889 29.6979 28.4859C29.8521 28.3829 30.0333 28.3279 30.2188 28.3279C30.4674 28.3279 30.7058 28.4267 30.8817 28.6025C31.0575 28.7783 31.1562 29.0167 31.1562 29.2654ZM21.7812 28.3279C21.5958 28.3279 21.4146 28.3829 21.2604 28.4859C21.1062 28.5889 20.9861 28.7353 20.9151 28.9066C20.8442 29.0779 20.8256 29.2664 20.8618 29.4483C20.8979 29.6301 20.9872 29.7972 21.1183 29.9283C21.2494 30.0594 21.4165 30.1487 21.5984 30.1849C21.7802 30.221 21.9687 30.2025 22.14 30.1315C22.3113 30.0606 22.4577 29.9404 22.5608 29.7862C22.6638 29.6321 22.7188 29.4508 22.7188 29.2654C22.7188 29.0167 22.62 28.7783 22.4442 28.6025C22.2683 28.4267 22.0299 28.3279 21.7812 28.3279ZM38.6562 30.6716V33.4841C38.6562 33.8571 38.5081 34.2148 38.2444 34.4785C37.9806 34.7422 37.623 34.8904 37.25 34.8904H14.75C14.377 34.8904 14.0194 34.7422 13.7556 34.4785C13.4919 34.2148 13.3438 33.8571 13.3438 33.4841V30.8005C13.3435 28.9755 13.7321 27.1714 14.4838 25.5084C15.2355 23.8453 16.333 22.3616 17.7031 21.156L14.4219 17.8748C14.3542 17.7845 14.3213 17.6728 14.3293 17.5603C14.3373 17.4477 14.3856 17.3418 14.4654 17.262C14.5452 17.1823 14.6511 17.1339 14.7636 17.1259C14.8762 17.1179 14.9879 17.1508 15.0781 17.2185L18.4297 20.5701C20.5931 18.9232 23.2343 18.0263 25.9531 18.0154H26C28.7395 18.0086 31.4062 18.8975 33.5938 20.5466L36.9219 17.2185C36.9622 17.1648 37.0135 17.1203 37.0725 17.0882C37.1315 17.056 37.1967 17.0369 37.2636 17.0322C37.3306 17.0274 37.3979 17.0371 37.4608 17.0606C37.5237 17.0841 37.5808 17.1208 37.6283 17.1683C37.6758 17.2158 37.7125 17.2729 37.736 17.3358C37.7595 17.3988 37.7692 17.466 37.7644 17.533C37.7597 17.6 37.7406 17.6652 37.7084 17.7241C37.6763 17.7831 37.6319 17.8345 37.5781 17.8748L34.3203 21.1326L34.9297 21.7068C36.114 22.8795 37.0533 24.276 37.6931 25.815C38.3328 27.3541 38.6602 29.0049 38.6562 30.6716ZM37.7188 30.6716C37.7188 29.1327 37.4156 27.6088 36.8267 26.1871C36.2378 24.7653 35.3746 23.4734 34.2864 22.3852C33.1982 21.297 31.9064 20.4338 30.4846 19.8449C29.0628 19.256 27.5389 18.9529 26 18.9529H25.9531C19.5195 18.9763 14.2813 24.2966 14.2813 30.8005V33.4841C14.2813 33.6085 14.3306 33.7277 14.4185 33.8156C14.5065 33.9035 14.6257 33.9529 14.75 33.9529H37.25C37.3743 33.9529 37.4935 33.9035 37.5815 33.8156C37.6694 33.7277 37.7188 33.6085 37.7188 33.4841V30.6716Z" fill="#19303D"/>
<path d="M26.8818 50.7619C40.1688 50.6401 50.8413 39.7701 50.7195 26.4831C50.5978 13.1961 39.7278 2.5236 26.4408 2.64539C13.1538 2.76718 2.48127 13.6372 2.60306 26.9241C2.72486 40.2111 13.5948 50.8837 26.8818 50.7619Z" stroke="#19303D" stroke-width="1.65926" stroke-dasharray="4.15 4.15"/>
</g>
<defs>
<clipPath id="clip0_524_437">
<rect width="52" height="52" fill="white" transform="translate(0 0.484131)"/>
</clipPath>
</defs>
</svg>
