<svg width="144" height="38" viewBox="0 0 144 38" fill="none" xmlns="http://www.w3.org/2000/svg">
<path d="M40.825 16.025C41.225 15.375 41.8 14.85 42.55 14.45C43.3 14.05 44.1583 13.85 45.125 13.85C46.275 13.85 47.3167 14.1417 48.25 14.725C49.1833 15.3083 49.9167 16.1417 50.45 17.225C51 18.3083 51.275 19.5667 51.275 21C51.275 22.4333 51 23.7 50.45 24.8C49.9167 25.8833 49.1833 26.725 48.25 27.325C47.3167 27.9083 46.275 28.2 45.125 28.2C44.1417 28.2 43.2833 28.0083 42.55 27.625C41.8167 27.225 41.2417 26.7 40.825 26.05V28H36.55V9.5H40.825V16.025ZM46.925 21C46.925 19.9333 46.625 19.1 46.025 18.5C45.4417 17.8833 44.7167 17.575 43.85 17.575C43 17.575 42.275 17.8833 41.675 18.5C41.0917 19.1167 40.8 19.9583 40.8 21.025C40.8 22.0917 41.0917 22.9333 41.675 23.55C42.275 24.1667 43 24.475 43.85 24.475C44.7 24.475 45.425 24.1667 46.025 23.55C46.625 22.9167 46.925 22.0667 46.925 21ZM57.5428 9.5V28H53.2678V9.5H57.5428ZM66.7408 28.2C65.3742 28.2 64.1408 27.9083 63.0408 27.325C61.9575 26.7417 61.0992 25.9083 60.4658 24.825C59.8492 23.7417 59.5408 22.475 59.5408 21.025C59.5408 19.5917 59.8575 18.3333 60.4908 17.25C61.1242 16.15 61.9908 15.3083 63.0908 14.725C64.1908 14.1417 65.4242 13.85 66.7908 13.85C68.1575 13.85 69.3908 14.1417 70.4908 14.725C71.5908 15.3083 72.4575 16.15 73.0908 17.25C73.7242 18.3333 74.0408 19.5917 74.0408 21.025C74.0408 22.4583 73.7158 23.725 73.0658 24.825C72.4325 25.9083 71.5575 26.7417 70.4408 27.325C69.3408 27.9083 68.1075 28.2 66.7408 28.2ZM66.7408 24.5C67.5575 24.5 68.2492 24.2 68.8158 23.6C69.3992 23 69.6908 22.1417 69.6908 21.025C69.6908 19.9083 69.4075 19.05 68.8408 18.45C68.2908 17.85 67.6075 17.55 66.7908 17.55C65.9575 17.55 65.2658 17.85 64.7158 18.45C64.1658 19.0333 63.8908 19.8917 63.8908 21.025C63.8908 22.1417 64.1575 23 64.6908 23.6C65.2408 24.2 65.9242 24.5 66.7408 24.5ZM75.2088 21.025C75.2088 19.575 75.5005 18.3083 76.0838 17.225C76.6838 16.1417 77.5088 15.3083 78.5588 14.725C79.6255 14.1417 80.8421 13.85 82.2088 13.85C83.9588 13.85 85.4171 14.3083 86.5838 15.225C87.7671 16.1417 88.5421 17.4333 88.9088 19.1H84.3588C83.9755 18.0333 83.2338 17.5 82.1338 17.5C81.3505 17.5 80.7255 17.8083 80.2588 18.425C79.7921 19.025 79.5588 19.8917 79.5588 21.025C79.5588 22.1583 79.7921 23.0333 80.2588 23.65C80.7255 24.25 81.3505 24.55 82.1338 24.55C83.2338 24.55 83.9755 24.0167 84.3588 22.95H88.9088C88.5421 24.5833 87.7671 25.8667 86.5838 26.8C85.4005 27.7333 83.9421 28.2 82.2088 28.2C80.8421 28.2 79.6255 27.9083 78.5588 27.325C77.5088 26.7417 76.6838 25.9083 76.0838 24.825C75.5005 23.7417 75.2088 22.475 75.2088 21.025ZM96.6205 28.2C95.4038 28.2 94.3205 27.9917 93.3705 27.575C92.4205 27.1583 91.6705 26.5917 91.1205 25.875C90.5705 25.1417 90.2622 24.325 90.1955 23.425H94.4205C94.4705 23.9083 94.6955 24.3 95.0955 24.6C95.4955 24.9 95.9872 25.05 96.5705 25.05C97.1038 25.05 97.5122 24.95 97.7955 24.75C98.0955 24.5333 98.2455 24.2583 98.2455 23.925C98.2455 23.525 98.0372 23.2333 97.6205 23.05C97.2038 22.85 96.5288 22.6333 95.5955 22.4C94.5955 22.1667 93.7622 21.925 93.0955 21.675C92.4288 21.4083 91.8538 21 91.3705 20.45C90.8872 19.8833 90.6455 19.125 90.6455 18.175C90.6455 17.375 90.8622 16.65 91.2955 16C91.7455 15.3333 92.3955 14.8083 93.2455 14.425C94.1122 14.0417 95.1372 13.85 96.3205 13.85C98.0705 13.85 99.4455 14.2833 100.446 15.15C101.462 16.0167 102.046 17.1667 102.196 18.6H98.2455C98.1788 18.1167 97.9622 17.7333 97.5955 17.45C97.2455 17.1667 96.7788 17.025 96.1955 17.025C95.6955 17.025 95.3122 17.125 95.0455 17.325C94.7788 17.5083 94.6455 17.7667 94.6455 18.1C94.6455 18.5 94.8538 18.8 95.2705 19C95.7038 19.2 96.3705 19.4 97.2705 19.6C98.3038 19.8667 99.1455 20.1333 99.7955 20.4C100.446 20.65 101.012 21.0667 101.496 21.65C101.996 22.2167 102.254 22.9833 102.271 23.95C102.271 24.7667 102.037 25.5 101.571 26.15C101.121 26.7833 100.462 27.2833 99.5955 27.65C98.7455 28.0167 97.7538 28.2 96.6205 28.2ZM113.211 13.9C114.811 13.9 116.094 14.4333 117.061 15.5C118.028 16.55 118.511 18 118.511 19.85V28H114.261V20.425C114.261 19.4917 114.019 18.7667 113.536 18.25C113.053 17.7333 112.403 17.475 111.586 17.475C110.769 17.475 110.119 17.7333 109.636 18.25C109.153 18.7667 108.911 19.4917 108.911 20.425V28H104.636V9.5H108.911V15.925C109.344 15.3083 109.936 14.8167 110.686 14.45C111.436 14.0833 112.278 13.9 113.211 13.9ZM123.382 12.6C122.632 12.6 122.015 12.3833 121.532 11.95C121.065 11.5 120.832 10.95 120.832 10.3C120.832 9.63333 121.065 9.08333 121.532 8.65C122.015 8.2 122.632 7.975 123.382 7.975C124.115 7.975 124.715 8.2 125.182 8.65C125.665 9.08333 125.907 9.63333 125.907 10.3C125.907 10.95 125.665 11.5 125.182 11.95C124.715 12.3833 124.115 12.6 123.382 12.6ZM125.507 14.05V28H121.232V14.05H125.507ZM132.63 16.025C133.046 15.375 133.621 14.85 134.355 14.45C135.088 14.05 135.946 13.85 136.93 13.85C138.08 13.85 139.121 14.1417 140.055 14.725C140.988 15.3083 141.721 16.1417 142.255 17.225C142.805 18.3083 143.08 19.5667 143.08 21C143.08 22.4333 142.805 23.7 142.255 24.8C141.721 25.8833 140.988 26.725 140.055 27.325C139.121 27.9083 138.08 28.2 136.93 28.2C135.963 28.2 135.105 28 134.355 27.6C133.621 27.2 133.046 26.6833 132.63 26.05V34.65H128.355V14.05H132.63V16.025ZM138.73 21C138.73 19.9333 138.43 19.1 137.83 18.5C137.246 17.8833 136.521 17.575 135.655 17.575C134.805 17.575 134.08 17.8833 133.48 18.5C132.896 19.1167 132.605 19.9583 132.605 21.025C132.605 22.0917 132.896 22.9333 133.48 23.55C134.08 24.1667 134.805 24.475 135.655 24.475C136.505 24.475 137.23 24.1667 137.83 23.55C138.43 22.9167 138.73 22.0667 138.73 21Z" fill="#011643"/>
<path d="M5.95215 12.1428H10.1188C15.7074 12.1428 20.2379 16.6733 20.2379 22.2619V22.2619C20.2379 27.8505 15.7074 32.3809 10.1188 32.3809H5.95215V12.1428Z" fill="url(#paint0_linear_524_11)"/>
<rect y="10.9524" width="7.14286" height="21.4286" fill="url(#paint1_linear_524_11)"/>
<path d="M5.95215 18.0952H10.7141C12.6865 18.0952 14.2855 19.6942 14.2855 21.6666V21.6666C14.2855 23.6391 12.6865 25.2381 10.7141 25.2381H5.95215V18.0952Z" fill="url(#paint2_linear_524_11)"/>
<rect y="5" width="7.14286" height="7.14286" fill="#E8AF2B"/>
<rect x="19.0479" y="26.4285" width="5.95238" height="5.95238" rx="2.97619" fill="#E4AF31"/>
<defs>
<linearGradient id="paint0_linear_524_11" x1="13.095" y1="12.1428" x2="13.095" y2="32.3809" gradientUnits="userSpaceOnUse">
<stop stop-color="#F9A720"/>
<stop offset="1" stop-color="#FE901D"/>
</linearGradient>
<linearGradient id="paint1_linear_524_11" x1="3.57143" y1="10.9524" x2="3.57143" y2="32.381" gradientUnits="userSpaceOnUse">
<stop stop-color="#FEBE3B"/>
<stop offset="1" stop-color="#FEA62B"/>
</linearGradient>
<linearGradient id="paint2_linear_524_11" x1="10.1188" y1="18.0952" x2="10.1188" y2="25.2381" gradientUnits="userSpaceOnUse">
<stop stop-color="#FEBE3B"/>
<stop offset="1" stop-color="#FEA62B"/>
</linearGradient>
</defs>
</svg>
