<svg width="78" height="79" viewBox="0 0 78 79" fill="none" xmlns="http://www.w3.org/2000/svg">
<g filter="url(#filter0_b_524_755)">
<rect y="0.390625" width="78" height="78" rx="39" fill="url(#paint0_linear_524_755)"/>
<g filter="url(#filter1_b_524_755)">
<rect x="14" y="14.3906" width="50" height="50" rx="25" fill="url(#paint1_linear_524_755)"/>
<mask id="mask0_524_755" style="mask-type:alpha" maskUnits="userSpaceOnUse" x="24" y="24" width="30" height="31">
<rect x="24" y="24.3906" width="30" height="30" fill="#D9D9D9"/>
</mask>
<g mask="url(#mask0_524_755)">
<path d="M37.75 50.6406V48.1406H47.75V39.2656C47.75 38.0573 47.5208 36.9219 47.0625 35.8594C46.6042 34.7969 45.9792 33.8698 45.1875 33.0781C44.3958 32.2865 43.4688 31.6615 42.4062 31.2031C41.3438 30.7448 40.2083 30.5156 39 30.5156C37.7917 30.5156 36.6562 30.7448 35.5938 31.2031C34.5312 31.6615 33.6042 32.2865 32.8125 33.0781C32.0208 33.8698 31.3958 34.7969 30.9375 35.8594C30.4792 36.9219 30.25 38.0573 30.25 39.2656V46.8906H29C28.3125 46.8906 27.7242 46.646 27.235 46.1569C26.745 45.6669 26.5 45.0781 26.5 44.3906V41.8906C26.5 41.4115 26.6146 40.9894 26.8438 40.6244C27.0729 40.2602 27.375 39.9635 27.75 39.7344L27.8438 38.0781C28.0313 36.5573 28.4637 35.1823 29.1412 33.9531C29.8179 32.724 30.6617 31.6823 31.6725 30.8281C32.6825 29.974 33.8179 29.3123 35.0787 28.8431C36.3387 28.3748 37.6458 28.1406 39 28.1406C40.375 28.1406 41.6929 28.3748 42.9538 28.8431C44.2138 29.3123 45.3438 29.979 46.3438 30.8431C47.3438 31.7081 48.1825 32.7498 48.86 33.9681C49.5367 35.1873 49.9687 36.5469 50.1562 38.0469L50.25 39.6719C50.625 39.8594 50.9271 40.1352 51.1562 40.4994C51.3854 40.8644 51.5 41.2656 51.5 41.7031V44.5781C51.5 45.0365 51.3854 45.4427 51.1562 45.7969C50.9271 46.151 50.625 46.4219 50.25 46.6094V48.1406C50.25 48.8281 50.0054 49.4169 49.5163 49.9069C49.0263 50.396 48.4375 50.6406 47.75 50.6406H37.75ZM35.25 41.8906C34.8958 41.8906 34.5992 41.7706 34.36 41.5306C34.12 41.2915 34 40.9948 34 40.6406C34 40.2865 34.12 39.9894 34.36 39.7494C34.5992 39.5102 34.8958 39.3906 35.25 39.3906C35.6042 39.3906 35.9013 39.5102 36.1413 39.7494C36.3804 39.9894 36.5 40.2865 36.5 40.6406C36.5 40.9948 36.3804 41.2915 36.1413 41.5306C35.9013 41.7706 35.6042 41.8906 35.25 41.8906ZM42.75 41.8906C42.3958 41.8906 42.0992 41.7706 41.86 41.5306C41.62 41.2915 41.5 40.9948 41.5 40.6406C41.5 40.2865 41.62 39.9894 41.86 39.7494C42.0992 39.5102 42.3958 39.3906 42.75 39.3906C43.1042 39.3906 43.4013 39.5102 43.6413 39.7494C43.8804 39.9894 44 40.2865 44 40.6406C44 40.9948 43.8804 41.2915 43.6413 41.5306C43.4013 41.7706 43.1042 41.8906 42.75 41.8906ZM31.5312 39.9531C31.4479 38.724 31.62 37.6094 32.0475 36.6094C32.4742 35.6094 33.0467 34.7602 33.765 34.0619C34.4842 33.3644 35.3125 32.8281 36.25 32.4531C37.1875 32.0781 38.125 31.8906 39.0625 31.8906C40.9583 31.8906 42.5992 32.4898 43.985 33.6881C45.37 34.8856 46.2083 36.3802 46.5 38.1719C44.5417 38.151 42.7708 37.6248 41.1875 36.5931C39.6042 35.5623 38.4062 34.224 37.5938 32.5781C37.2604 34.2656 36.5575 35.7602 35.485 37.0619C34.4117 38.3644 33.0938 39.3281 31.5312 39.9531Z" fill="#011643"/>
</g>
</g>
</g>
<defs>
<filter id="filter0_b_524_755" x="-20" y="-19.6094" width="118" height="118" filterUnits="userSpaceOnUse" color-interpolation-filters="sRGB">
<feFlood flood-opacity="0" result="BackgroundImageFix"/>
<feGaussianBlur in="BackgroundImageFix" stdDeviation="10"/>
<feComposite in2="SourceAlpha" operator="in" result="effect1_backgroundBlur_524_755"/>
<feBlend mode="normal" in="SourceGraphic" in2="effect1_backgroundBlur_524_755" result="shape"/>
</filter>
<filter id="filter1_b_524_755" x="-6" y="-5.60938" width="90" height="90" filterUnits="userSpaceOnUse" color-interpolation-filters="sRGB">
<feFlood flood-opacity="0" result="BackgroundImageFix"/>
<feGaussianBlur in="BackgroundImageFix" stdDeviation="10"/>
<feComposite in2="SourceAlpha" operator="in" result="effect1_backgroundBlur_524_755"/>
<feBlend mode="normal" in="SourceGraphic" in2="effect1_backgroundBlur_524_755" result="shape"/>
</filter>
<linearGradient id="paint0_linear_524_755" x1="0" y1="0.390625" x2="57.4144" y2="91.3802" gradientUnits="userSpaceOnUse">
<stop stop-color="#E1E4E8" stop-opacity="0.1"/>
<stop offset="1" stop-color="#E1E4E8"/>
</linearGradient>
<linearGradient id="paint1_linear_524_755" x1="14" y1="14.3906" x2="92.636" y2="124.291" gradientUnits="userSpaceOnUse">
<stop stop-color="#EBEBEB"/>
<stop offset="1" stop-color="#BBCFE9" stop-opacity="0.69"/>
</linearGradient>
</defs>
</svg>
