<svg width="53" height="53" viewBox="0 0 53 53" fill="none" xmlns="http://www.w3.org/2000/svg">
<g clip-path="url(#clip0_524_489)">
<path d="M37 20.5867C29.8409 11.587 18.8636 15.0867 16 20.5867V33.0869C22.6818 41.5869 34.6136 37.0869 37 33.0869V20.5867Z" fill="#F9A920"/>
<path d="M26.25 14.3994C19.9453 14.3994 15 17.2822 15 20.9619V32.2119C15 35.8916 19.9453 38.7744 26.25 38.7744C32.5547 38.7744 37.5 35.8916 37.5 32.2119V20.9619C37.5 17.2822 32.5547 14.3994 26.25 14.3994ZM35.625 26.5869C35.625 27.7119 34.6992 28.8604 33.0938 29.7393C31.2773 30.7354 28.8516 31.2744 26.25 31.2744C23.6484 31.2744 21.2227 30.7354 19.4062 29.7393C17.8008 28.8604 16.875 27.7119 16.875 26.5869V24.6416C18.8789 26.3877 22.2891 27.5244 26.25 27.5244C30.2109 27.5244 33.6211 26.3877 35.625 24.6416V26.5869ZM19.4062 17.8096C21.2227 16.8135 23.6484 16.2744 26.25 16.2744C28.8516 16.2744 31.2773 16.8135 33.0938 17.8096C34.6992 18.6885 35.625 19.8369 35.625 20.9619C35.625 22.0869 34.6992 23.2354 33.0938 24.1143C31.2773 25.1104 28.8516 25.6494 26.25 25.6494C23.6484 25.6494 21.2227 25.1104 19.4062 24.1143C17.8008 23.2354 16.875 22.0869 16.875 20.9619C16.875 19.8369 17.8008 18.6885 19.4062 17.8096ZM33.0938 35.3643C31.2773 36.3604 28.8516 36.8994 26.25 36.8994C23.6484 36.8994 21.2227 36.3604 19.4062 35.3643C17.8008 34.4854 16.875 33.3369 16.875 32.2119V30.2666C18.8789 32.0127 22.2891 33.1494 26.25 33.1494C30.2109 33.1494 33.6211 32.0127 35.625 30.2666V32.2119C35.625 33.3369 34.6992 34.4854 33.0938 35.3643Z" fill="#19303D"/>
<path d="M27.0508 50.8554C40.3378 50.7336 51.0103 39.8636 50.8885 26.5766C50.7667 13.2896 39.8967 2.61711 26.6097 2.7389C13.3227 2.86069 2.65022 13.7307 2.77201 27.0177C2.8938 40.3047 13.7638 50.9772 27.0508 50.8554Z" stroke="#19303D" stroke-width="1.65926" stroke-dasharray="4.15 4.15"/>
</g>
<defs>
<clipPath id="clip0_524_489">
<rect width="52" height="52" fill="white" transform="translate(0.168945 0.577637)"/>
</clipPath>
</defs>
</svg>
