<svg width="24" height="25" viewBox="0 0 24 25" fill="none" xmlns="http://www.w3.org/2000/svg">
<mask id="mask0_524_805" style="mask-type:alpha" maskUnits="userSpaceOnUse" x="0" y="0" width="24" height="25">
<rect y="0.19043" width="24" height="24" fill="#D9D9D9"/>
</mask>
<g mask="url(#mask0_524_805)">
<path d="M11.0252 21.1904V19.0404C10.1419 18.8404 9.37936 18.4571 8.7377 17.8904C8.09603 17.3238 7.6252 16.5238 7.3252 15.4904L9.1752 14.7404C9.4252 15.5404 9.79603 16.1488 10.2877 16.5654C10.7794 16.9821 11.4252 17.1904 12.2252 17.1904C12.9085 17.1904 13.4877 17.0363 13.9627 16.7279C14.4377 16.4196 14.6752 15.9404 14.6752 15.2904C14.6752 14.7071 14.4919 14.2446 14.1252 13.9029C13.7585 13.5613 12.9085 13.1738 11.5752 12.7404C10.1419 12.2904 9.15853 11.7529 8.6252 11.1279C8.09186 10.5029 7.8252 9.74043 7.8252 8.84043C7.8252 7.7571 8.1752 6.91543 8.8752 6.31543C9.5752 5.71543 10.2919 5.37376 11.0252 5.29043V3.19043H13.0252V5.29043C13.8585 5.42376 14.546 5.72793 15.0877 6.20293C15.6294 6.67793 16.0252 7.2571 16.2752 7.94043L14.4252 8.74043C14.2252 8.2071 13.9419 7.8071 13.5752 7.54043C13.2085 7.27376 12.7085 7.14043 12.0752 7.14043C11.3419 7.14043 10.7835 7.30293 10.4002 7.62793C10.0169 7.95293 9.8252 8.3571 9.8252 8.84043C9.8252 9.39043 10.0752 9.82376 10.5752 10.1404C11.0752 10.4571 11.9419 10.7904 13.1752 11.1404C14.3252 11.4738 15.196 12.0029 15.7877 12.7279C16.3794 13.4529 16.6752 14.2904 16.6752 15.2404C16.6752 16.4238 16.3252 17.3238 15.6252 17.9404C14.9252 18.5571 14.0585 18.9404 13.0252 19.0904V21.1904H11.0252Z" fill="#1C1B1F"/>
</g>
</svg>
