<svg width="53" height="53" viewBox="0 0 53 53" fill="none" xmlns="http://www.w3.org/2000/svg">
<g clip-path="url(#clip0_524_483)">
<g clip-path="url(#clip1_524_483)">
<path d="M19.9998 29.5798L17.0071 26.5871L28.5077 15.0999H34.4769L19.9998 29.5798ZM28.8863 31.7654L28.5329 32.1187L28.886 32.4722L34.4938 38.0869H28.5339L22.5643 32.1173L28.5346 26.1589H34.4927L28.8863 31.7654Z" fill="#F9A920" stroke="#19303D"/>
</g>
<path d="M27.0508 50.8554C40.3378 50.7336 51.0103 39.8636 50.8885 26.5766C50.7667 13.2896 39.8967 2.61711 26.6097 2.7389C13.3227 2.86069 2.65022 13.7307 2.77201 27.0177C2.8938 40.3047 13.7638 50.9772 27.0508 50.8554Z" stroke="#19303D" stroke-width="1.65926" stroke-dasharray="4.15 4.15"/>
</g>
<defs>
<clipPath id="clip0_524_483">
<rect width="52" height="52" fill="white" transform="translate(0.168945 0.577637)"/>
</clipPath>
<clipPath id="clip1_524_483">
<rect width="24" height="24" fill="white" transform="translate(14 14.5869)"/>
</clipPath>
</defs>
</svg>
