<svg width="18" height="18" viewBox="0 0 18 18" fill="none" xmlns="http://www.w3.org/2000/svg">
<g clip-path="url(#clip0_524_565)">
<path fill-rule="evenodd" clip-rule="evenodd" d="M12.9518 2.20805C11.7451 1.48602 10.4289 1.125 8.99939 1.125C7.5711 1.125 6.25365 1.48602 5.04645 2.20805C3.84107 2.92947 2.88523 3.90875 2.18138 5.14527C1.47631 6.38305 1.125 7.73279 1.125 9.19762C1.125 10.9562 1.62593 12.5374 2.62719 13.9424C3.62845 15.345 4.92167 16.3199 6.50806 16.8576C6.6922 16.8928 6.82909 16.8683 6.91752 16.784C7.00657 16.6992 7.05078 16.5954 7.05078 16.4696L7.04594 15.9003C7.04231 15.5432 7.03988 15.2318 7.03988 14.9651L6.80487 15.0066C6.65464 15.035 6.46444 15.0469 6.23548 15.0431C6.00713 15.0399 5.76908 15.0154 5.52315 14.9695C5.27905 14.9243 5.05069 14.8199 4.83868 14.6551C4.62669 14.4903 4.47646 14.2745 4.38742 14.0085L4.28445 13.7658C4.21661 13.6047 4.10879 13.4261 3.9622 13.2311C3.81501 13.0336 3.66661 12.9003 3.51639 12.8305L3.4437 12.7782C3.39647 12.743 3.35285 12.7015 3.31045 12.6525C3.26987 12.6034 3.23957 12.5544 3.21959 12.5053C3.19899 12.4549 3.21535 12.4153 3.26987 12.3839C3.32437 12.3512 3.42371 12.3367 3.56667 12.3367L3.77261 12.3682C3.9083 12.3959 4.0779 12.4801 4.2796 12.6197C4.48131 12.7607 4.64727 12.9424 4.7763 13.1669C4.93379 13.4538 5.12337 13.6726 5.34567 13.8236C5.56797 13.9746 5.7921 14.0499 6.01803 14.0499C6.24214 14.0499 6.43779 14.0312 6.60194 13.9972C6.76549 13.962 6.91995 13.9091 7.06229 13.8399C7.12529 13.3694 7.29246 13.0084 7.56504 12.7562C7.17617 12.7134 6.82606 12.6506 6.51533 12.5663C6.20398 12.4826 5.88295 12.3461 5.55222 12.1562C5.21908 11.9676 4.94469 11.7336 4.72602 11.4518C4.50797 11.1738 4.32807 10.804 4.18875 10.3511C4.04943 9.89387 3.97856 9.36996 3.97856 8.77371C3.97856 7.92651 4.2475 7.20447 4.78781 6.60822C4.53462 5.97046 4.55763 5.25597 4.86049 4.46349C5.05735 4.40059 5.35113 4.44776 5.74121 4.605C6.13069 4.76224 6.41538 4.89747 6.59649 5.00879C6.7782 5.12201 6.92359 5.21635 7.03261 5.29307C7.66681 5.11446 8.3222 5.02451 8.99939 5.02451C9.6766 5.02451 10.332 5.11572 10.968 5.29748L11.3574 5.04464C11.624 4.87671 11.9389 4.72388 12.3012 4.58237C12.6646 4.44273 12.942 4.40437 13.1335 4.46727C13.4406 5.25974 13.4684 5.97361 13.2153 6.61199C13.7544 7.20699 14.0245 7.92903 14.0245 8.77685C14.0245 9.37185 13.9542 9.89954 13.8143 10.3587C13.6749 10.8178 13.4933 11.1876 13.2704 11.4638C13.0487 11.7404 12.7725 11.9732 12.4405 12.1631C12.1092 12.3519 11.7863 12.4883 11.4774 12.5719C11.1661 12.6563 10.8172 12.7192 10.4259 12.7607C10.7814 13.0751 10.9589 13.572 10.9589 14.2531V16.4715C10.9589 16.5973 11.0013 16.7017 11.0873 16.7859C11.1721 16.8696 11.3071 16.8947 11.492 16.8595C13.0789 16.3186 14.3715 15.3475 15.3728 13.9412C16.374 12.5386 16.875 10.9555 16.875 9.19762C16.875 7.73342 16.5224 6.38305 15.8186 5.1459C15.1142 3.90938 14.1589 2.9301 12.9536 2.20868L12.9518 2.20805Z" fill="#8A8F98"/>
</g>
<defs>
<clipPath id="clip0_524_565">
<rect width="18" height="18" fill="white"/>
</clipPath>
</defs>
</svg>
