<svg width="54" height="66" viewBox="0 0 54 66" fill="none" xmlns="http://www.w3.org/2000/svg">
<path d="M43.0218 22.1435L32.3029 14.8669L21.584 22.1435L32.3029 29.42L43.0218 22.1435Z" fill="#6F5DFF"/>
<path d="M21.584 36.6963L32.3029 43.9728V29.4198L21.584 22.1433V36.6963Z" fill="#372EC2"/>
<path d="M43.0236 36.6963V22.1433L32.3047 29.4198V43.9728L43.0236 36.6963Z" fill="#4B3FF9"/>
<path d="M53.7269 29.4198L43.008 22.1433L32.2891 29.4198L43.008 36.6963L53.7269 29.4198Z" fill="#6F5DFF"/>
<path d="M32.2891 43.9727L43.008 51.2492V36.6962L32.2891 29.4197V43.9727Z" fill="#372EC2"/>
<path d="M53.7248 43.9727V29.4197L43.0059 36.6962V51.2492L53.7248 43.9727Z" fill="#4B3FF9"/>
<path d="M32.3197 29.4198L21.6007 22.1433L10.8818 29.4198L21.6007 36.6963L32.3197 29.4198Z" fill="#6F5DFF"/>
<path d="M10.8818 43.9732L21.6007 51.2497V36.6967L10.8818 29.4202V43.9732Z" fill="#372EC2"/>
<path d="M32.3205 43.9732V29.4202L21.6016 36.6967V51.2497L32.3205 43.9732Z" fill="#4B3FF9"/>
<path d="M43.0218 36.6964L32.3029 29.4199L21.584 36.6964L32.3029 43.9729L43.0218 36.6964Z" fill="#6F5DFF"/>
<path d="M21.584 51.2496L32.3029 58.5261V43.973L21.584 36.6965V51.2496Z" fill="#372EC2"/>
<path d="M43.0236 51.2496V36.6965L32.3047 43.973V58.5261L43.0236 51.2496Z" fill="#4B3FF9"/>
<path d="M21.5843 36.6627L10.8654 29.3862L0.146484 36.6627L10.8654 43.9393L21.5843 36.6627Z" fill="#6F5DFF"/>
<path d="M0.146484 51.2156L10.8654 58.4921V43.9391L0.146484 36.6626V51.2156Z" fill="#372EC2"/>
<path d="M21.5861 51.2156V36.6626L10.8672 43.9391V58.4921L21.5861 51.2156Z" fill="#4B3FF9"/>
<path d="M32.305 43.9391L21.5861 36.6626L10.8672 43.9391L21.5861 51.2156L32.305 43.9391Z" fill="#6F5DFF"/>
<path d="M10.8672 58.4917L21.5861 65.7683V51.2152L10.8672 43.9387V58.4917Z" fill="#372EC2"/>
<path d="M32.3068 58.4917V43.9387L21.5879 51.2152V65.7683L32.3068 58.4917Z" fill="#4B3FF9"/>
<path d="M38.8925 12.6108L30.2583 6.74951L21.624 12.6108L30.2583 18.4722L38.8925 12.6108Z" fill="#6F5DFF"/>
<path d="M21.624 24.333L30.2583 30.1944V18.4717L21.624 12.6104V24.333Z" fill="#372EC2"/>
<path d="M38.893 24.3333V12.6106L30.2588 18.4719V30.1946L38.893 24.3333Z" fill="#4B3FF9"/>
<path d="M47.5146 18.4722L38.8803 12.6108L30.2461 18.4722L38.8803 24.3335L47.5146 18.4722Z" fill="#6F5DFF"/>
<path d="M30.2461 30.1946L38.8803 36.0559V24.3333L30.2461 18.4719V30.1946Z" fill="#372EC2"/>
<path d="M47.5141 30.1948V18.4722L38.8799 24.3335V36.0562L47.5141 30.1948Z" fill="#4B3FF9"/>
<path d="M30.2704 18.4719L21.6362 12.6106L13.002 18.4719L21.6362 24.3333L30.2704 18.4719Z" fill="#6F5DFF"/>
<path d="M13.002 30.1948L21.6362 36.0562V24.3335L13.002 18.4722V30.1948Z" fill="#372EC2"/>
<path d="M30.271 30.1948V18.4722L21.6367 24.3335V36.0562L30.271 30.1948Z" fill="#4B3FF9"/>
<path d="M38.8925 24.3328L30.2583 18.4714L21.624 24.3328L30.2583 30.1941L38.8925 24.3328Z" fill="#6F5DFF"/>
<path d="M21.624 36.0557L30.2583 41.917V30.1943L21.624 24.333V36.0557Z" fill="#372EC2"/>
<path d="M38.893 36.0557V24.333L30.2588 30.1943V41.917L38.893 36.0557Z" fill="#4B3FF9"/>
<path d="M21.6239 24.3062L12.9897 18.4448L4.35547 24.3062L12.9897 30.1675L21.6239 24.3062Z" fill="#6F5DFF"/>
<path d="M4.35547 36.0286L12.9897 41.8899V30.1672L4.35547 24.3059V36.0286Z" fill="#372EC2"/>
<path d="M21.6235 36.0286V24.3059L12.9893 30.1672V41.8899L21.6235 36.0286Z" fill="#4B3FF9"/>
<path d="M30.2577 30.1675L21.6235 24.3062L12.9893 30.1675L21.6235 36.0288L30.2577 30.1675Z" fill="#6F5DFF"/>
<path d="M12.9893 41.8904L21.6235 47.7517V36.0291L12.9893 30.1677V41.8904Z" fill="#372EC2"/>
<path d="M30.2573 41.8904V30.1677L21.623 36.0291V47.7517L30.2573 41.8904Z" fill="#4B3FF9"/>
<path d="M35.7269 4.56343L29.0045 0L22.2822 4.56343L29.0045 9.12687L35.7269 4.56343Z" fill="#6F5DFF"/>
<path d="M22.2822 13.6903L29.0045 18.2538V9.12691L22.2822 4.56348V13.6903Z" fill="#372EC2"/>
<path d="M35.7262 13.6903V4.56348L29.0039 9.12691V18.2538L35.7262 13.6903Z" fill="#4B3FF9"/>
<path d="M42.4427 9.12691L35.7204 4.56348L28.998 9.12691L35.7204 13.6903L42.4427 9.12691Z" fill="#6F5DFF"/>
<path d="M28.998 18.2536L35.7204 22.817V13.6901L28.998 9.12671V18.2536Z" fill="#372EC2"/>
<path d="M42.442 18.2536V9.12671L35.7197 13.6901V22.817L42.442 18.2536Z" fill="#4B3FF9"/>
<path d="M29.015 9.12691L22.2926 4.56348L15.5703 9.12691L22.2926 13.6903L29.015 9.12691Z" fill="#6F5DFF"/>
<path d="M15.5703 18.2536L22.2926 22.817V13.6901L15.5703 9.12671V18.2536Z" fill="#372EC2"/>
<path d="M29.0143 18.2536V9.12671L22.292 13.6901V22.817L29.0143 18.2536Z" fill="#4B3FF9"/>
<path d="M35.7269 13.6901L29.0045 9.12671L22.2822 13.6901L29.0045 18.2536L35.7269 13.6901Z" fill="#6F5DFF"/>
<path d="M22.2822 22.8168L29.0045 27.3802V18.2534L22.2822 13.6899V22.8168Z" fill="#372EC2"/>
<path d="M35.7262 22.8171V13.6902L29.0039 18.2536V27.3805L35.7262 22.8171Z" fill="#4B3FF9"/>
<path d="M22.2845 13.6696L15.5622 9.1062L8.83984 13.6696L15.5622 18.2331L22.2845 13.6696Z" fill="#6F5DFF"/>
<path d="M8.83984 22.7963L15.5622 27.3597V18.2329L8.83984 13.6694V22.7963Z" fill="#372EC2"/>
<path d="M22.2838 22.7963V13.6694L15.5615 18.2329V27.3597L22.2838 22.7963Z" fill="#4B3FF9"/>
<path d="M29.0062 18.2324L22.2838 13.6689L15.5615 18.2324L22.2838 22.7958L29.0062 18.2324Z" fill="#6F5DFF"/>
<path d="M15.5615 27.3595L22.2838 31.923V22.7961L15.5615 18.2327V27.3595Z" fill="#372EC2"/>
<path d="M29.0055 27.3598V18.2329L22.2832 22.7963V31.9232L29.0055 27.3598Z" fill="#4B3FF9"/>
</svg>
