<svg width="52" height="53" viewBox="0 0 52 53" fill="none" xmlns="http://www.w3.org/2000/svg">
<g clip-path="url(#clip0_524_431)">
<path d="M35.0285 32.2291C34.3403 33.9759 33.4603 35.6482 32.0698 36.8929L32.0693 36.8924C31.5152 37.4296 30.9542 37.6421 30.3945 37.6691C29.8227 37.6967 29.2237 37.5316 28.6031 37.2604L28.599 37.2587C27.1513 36.6477 25.8036 36.6215 24.2781 37.2582L24.2781 37.2582L24.2745 37.2597C23.4011 37.6358 22.7828 37.7469 22.2767 37.6767C21.7801 37.6078 21.3391 37.357 20.8321 36.8927C17.8511 33.816 16.598 29.9536 16.9143 26.8463C17.0724 25.2934 17.6201 23.9434 18.5215 22.965C19.4153 21.9949 20.676 21.3685 22.3126 21.2817C23.0952 21.325 23.7655 21.5398 24.3802 21.7646C24.4695 21.7972 24.559 21.8307 24.6485 21.8642C25.1556 22.0541 25.6637 22.2443 26.1364 22.2802L26.185 22.2839L26.2327 22.2742C26.7907 22.1607 27.35 21.9668 27.8851 21.7814C28.0821 21.7131 28.2758 21.6459 28.465 21.5843C29.188 21.349 29.8817 21.1792 30.5992 21.2302C32.2551 21.3621 33.5047 21.9713 34.3695 23.0395C30.6877 25.5512 31.5758 30.5734 35.0285 32.2291ZM27.4216 20.289C27.0365 20.4514 26.6791 20.5308 26.3771 20.5335C26.3778 18.2145 28.2064 16.2987 30.3894 15.937C30.4217 17.2687 29.7875 18.4389 28.9241 19.2751C28.4555 19.729 27.9278 20.0755 27.4216 20.289Z" fill="#F9A920" stroke="#19303D" stroke-width="0.7"/>
<path d="M26.8818 50.7619C40.1688 50.6401 50.8413 39.7701 50.7195 26.4831C50.5978 13.1961 39.7278 2.5236 26.4408 2.64539C13.1538 2.76718 2.48127 13.6372 2.60306 26.9241C2.72486 40.2111 13.5948 50.8837 26.8818 50.7619Z" stroke="#19303D" stroke-width="1.65926" stroke-dasharray="4.15 4.15"/>
</g>
<defs>
<clipPath id="clip0_524_431">
<rect width="52" height="52" fill="white" transform="translate(0 0.484131)"/>
</clipPath>
</defs>
</svg>
