<svg width="40" height="41" viewBox="0 0 40 41" fill="none" xmlns="http://www.w3.org/2000/svg">
<g clip-path="url(#clip0_524_776)">
<g filter="url(#filter0_b_524_776)">
<path d="M34.2173 17.4763C34.2654 11.8368 29.4622 6.66685 23.5102 5.95194C23.3919 5.9379 23.2629 5.91654 23.1264 5.89393C22.8317 5.84511 22.527 5.79492 22.2196 5.79492C20.9997 5.79492 20.6736 6.65182 20.5878 7.16287C20.5043 7.65977 20.5839 8.07703 20.824 8.40362C21.228 8.95293 21.9388 9.05045 22.5097 9.12859C22.6771 9.15169 22.835 9.17318 22.9671 9.20287C28.3147 10.3978 30.1153 12.2764 30.9953 17.5785C31.0168 17.7081 31.0265 17.8677 31.0368 18.037C31.0752 18.6708 31.1552 19.9895 32.5728 19.9895H32.573C32.691 19.9895 32.8178 19.9793 32.9499 19.9591C34.27 19.7585 34.2286 18.5532 34.2087 17.9741C34.2032 17.8109 34.1978 17.6567 34.2116 17.5541C34.2153 17.5282 34.2172 17.5023 34.2173 17.4763Z" fill="url(#paint0_linear_524_776)"/>
</g>
<g filter="url(#filter1_b_524_776)">
<path d="M21.8732 3.88149C22.0316 3.89291 22.1816 3.90385 22.3064 3.92298C31.0876 5.27341 35.126 9.43391 36.2452 18.2838C36.2642 18.4343 36.2671 18.6178 36.2702 18.812C36.2814 19.5035 36.3044 20.9419 37.8491 20.9717L37.8971 20.9722C38.3815 20.9722 38.7669 20.8261 39.0425 20.5376C39.5234 20.0347 39.4899 19.2874 39.4628 18.687C39.4562 18.5396 39.4499 18.4009 39.4515 18.2794C39.5632 9.22819 31.7284 1.02062 22.6853 0.715399C22.6478 0.714156 22.612 0.716144 22.5758 0.721237C22.5581 0.723846 22.5252 0.727076 22.4688 0.727076C22.3786 0.727076 22.2676 0.71925 22.15 0.711299C22.0078 0.70161 21.8465 0.69043 21.683 0.69043C20.2429 0.69043 19.9691 1.71403 19.9341 2.32422C19.8534 3.73441 21.2176 3.83366 21.8732 3.88149Z" fill="url(#paint1_linear_524_776)"/>
</g>
<path d="M35.8214 29.7223C35.6347 29.5797 35.4417 29.4322 35.261 29.2866C34.3022 28.515 33.2822 27.8038 32.2957 27.116C32.091 26.9734 31.8863 26.8307 31.6823 26.6876C30.4187 25.8 29.2827 25.3687 28.2094 25.3687C26.7638 25.3687 25.5034 26.1674 24.4632 27.7425C24.0023 28.4407 23.4432 28.7802 22.7541 28.7802C22.3467 28.7802 21.8837 28.664 21.3782 28.4345C17.2996 26.5849 14.3872 23.7492 12.7217 20.0059C11.9166 18.1967 12.1776 17.0141 13.5945 16.0517C14.3991 15.5056 15.8967 14.4889 15.7906 12.5421C15.6705 10.3313 10.7925 3.67923 8.73723 2.92371C7.86704 2.60371 6.95275 2.60072 6.01487 2.91625C3.65213 3.71054 1.9566 5.10545 1.11114 6.94992C0.29412 8.73215 0.331014 10.8248 1.21785 13.0017C3.78157 19.2956 7.38605 24.7831 11.9315 29.3114C16.3807 33.7442 21.8491 37.3753 28.1848 40.1033C28.7559 40.349 29.3549 40.4831 29.7923 40.5809C29.9413 40.6144 30.07 40.643 30.1638 40.6687C30.2154 40.6827 30.2685 40.6903 30.3218 40.6908L30.3719 40.691C30.3719 40.691 30.3719 40.691 30.3721 40.691C33.352 40.691 36.93 37.9681 38.0289 34.8637C38.9916 32.1454 37.2339 30.8018 35.8214 29.7223Z" fill="#011643"/>
<g filter="url(#filter2_b_524_776)">
<path d="M23.1911 11.0714C22.6809 11.0843 21.6192 11.1107 21.2467 12.192C21.0724 12.6974 21.0932 13.1361 21.3088 13.4961C21.625 14.0243 22.231 14.1862 22.7822 14.275C24.7811 14.5957 25.8077 15.7011 26.013 17.7533C26.1084 18.7102 26.7528 19.3784 27.5801 19.3784C27.6412 19.3784 27.7038 19.3748 27.766 19.3672C28.7611 19.2488 29.2434 18.5177 29.1998 17.1945C29.2157 15.8135 28.493 14.2457 27.2638 12.9969C26.0304 11.7442 24.5436 11.0387 23.1911 11.0714Z" fill="url(#paint2_linear_524_776)"/>
</g>
</g>
<defs>
<filter id="filter0_b_524_776" x="0.555664" y="-14.2051" width="53.6621" height="54.1943" filterUnits="userSpaceOnUse" color-interpolation-filters="sRGB">
<feFlood flood-opacity="0" result="BackgroundImageFix"/>
<feGaussianBlur in="BackgroundImageFix" stdDeviation="10"/>
<feComposite in2="SourceAlpha" operator="in" result="effect1_backgroundBlur_524_776"/>
<feBlend mode="normal" in="SourceGraphic" in2="effect1_backgroundBlur_524_776" result="shape"/>
</filter>
<filter id="filter1_b_524_776" x="-0.0693359" y="-19.3096" width="59.5459" height="60.2822" filterUnits="userSpaceOnUse" color-interpolation-filters="sRGB">
<feFlood flood-opacity="0" result="BackgroundImageFix"/>
<feGaussianBlur in="BackgroundImageFix" stdDeviation="10"/>
<feComposite in2="SourceAlpha" operator="in" result="effect1_backgroundBlur_524_776"/>
<feBlend mode="normal" in="SourceGraphic" in2="effect1_backgroundBlur_524_776" result="shape"/>
</filter>
<filter id="filter2_b_524_776" x="1.12988" y="-8.92969" width="48.0723" height="48.3076" filterUnits="userSpaceOnUse" color-interpolation-filters="sRGB">
<feFlood flood-opacity="0" result="BackgroundImageFix"/>
<feGaussianBlur in="BackgroundImageFix" stdDeviation="10"/>
<feComposite in2="SourceAlpha" operator="in" result="effect1_backgroundBlur_524_776"/>
<feBlend mode="normal" in="SourceGraphic" in2="effect1_backgroundBlur_524_776" result="shape"/>
</filter>
<linearGradient id="paint0_linear_524_776" x1="20.5557" y1="5.79492" x2="43.142" y2="36.1769" gradientUnits="userSpaceOnUse">
<stop stop-color="#EBEBEB"/>
<stop offset="0.425" stop-color="#BBCFE9"/>
</linearGradient>
<linearGradient id="paint1_linear_524_776" x1="19.9307" y1="0.69043" x2="52.1912" y2="44.1405" gradientUnits="userSpaceOnUse">
<stop stop-color="#EBEBEB"/>
<stop offset="0.425" stop-color="#BBCFE9"/>
</linearGradient>
<linearGradient id="paint2_linear_524_776" x1="21.1299" y1="11.0703" x2="34.313" y2="28.9727" gradientUnits="userSpaceOnUse">
<stop stop-color="#EBEBEB"/>
<stop offset="0.425" stop-color="#BBCFE9"/>
</linearGradient>
<clipPath id="clip0_524_776">
<rect width="40" height="40" fill="white" transform="translate(0 0.69043)"/>
</clipPath>
</defs>
</svg>
