<svg width="18" height="18" viewBox="0 0 18 18" fill="none" xmlns="http://www.w3.org/2000/svg">
<g clip-path="url(#clip0_524_569)">
<path d="M4.44557 11.081C4.44557 11.9965 3.70631 12.7363 2.79163 12.7363C1.87696 12.7363 1.1377 11.9965 1.1377 11.081C1.1377 10.1656 1.87696 9.42578 2.79163 9.42578H4.44557V11.081ZM5.27253 11.081C5.27253 10.1656 6.0118 9.42578 6.92647 9.42578C7.84115 9.42578 8.58041 10.1656 8.58041 11.081V15.2191C8.58041 16.1346 7.84115 16.8745 6.92647 16.8745C6.0118 16.8745 5.27253 16.1346 5.27253 15.2191V11.081Z" fill="#8A8F98"/>
<path d="M6.92631 4.43551C6.01164 4.43551 5.27237 3.69566 5.27237 2.78025C5.27237 1.86485 6.01164 1.125 6.92631 1.125C7.84099 1.125 8.58025 1.86485 8.58025 2.78025V4.43551H6.92631ZM6.92631 5.27568C7.84099 5.27568 8.58025 6.01553 8.58025 6.93093C8.58025 7.84634 7.84099 8.58618 6.92631 8.58618H2.77894C1.86426 8.58618 1.125 7.84634 1.125 6.93093C1.125 6.01553 1.86426 5.27568 2.77894 5.27568H6.92631Z" fill="#8A8F98"/>
<path d="M13.5547 6.93093C13.5547 6.01553 14.294 5.27568 15.2087 5.27568C16.1233 5.27568 16.8627 6.01553 16.8627 6.93093C16.8627 7.84634 16.1233 8.58618 15.2087 8.58618H13.5547V6.93093ZM12.7277 6.93093C12.7277 7.84634 11.9885 8.58618 11.0739 8.58618C10.1592 8.58618 9.41992 7.84634 9.41992 6.93093V2.78025C9.41992 1.86485 10.1592 1.125 11.0739 1.125C11.9885 1.125 12.7277 1.86485 12.7277 2.78025V6.93093Z" fill="#8A8F98"/>
<path d="M11.0739 13.5639C11.9885 13.5639 12.7277 14.3037 12.7277 15.2191C12.7277 16.1346 11.9885 16.8745 11.0739 16.8745C10.1592 16.8745 9.41992 16.1346 9.41992 15.2191V13.5639H11.0739ZM11.0739 12.7363C10.1592 12.7363 9.41992 11.9965 9.41992 11.081C9.41992 10.1656 10.1592 9.42578 11.0739 9.42578H15.2212C16.1359 9.42578 16.8752 10.1656 16.8752 11.081C16.8752 11.9965 16.1359 12.7363 15.2212 12.7363H11.0739Z" fill="#8A8F98"/>
</g>
<defs>
<clipPath id="clip0_524_569">
<rect width="18" height="18" fill="white"/>
</clipPath>
</defs>
</svg>
