<svg width="18" height="18" viewBox="0 0 18 18" fill="none" xmlns="http://www.w3.org/2000/svg">
<g clip-path="url(#clip0_524_561)">
<path d="M18 3.84843C17.3794 4.1191 16.7128 4.30199 16.0119 4.38465C16.7269 3.96328 17.2754 3.29465 17.534 2.49873C16.8651 2.88937 16.1242 3.17321 15.3357 3.32538C14.704 2.66406 13.8047 2.25 12.8088 2.25C10.8973 2.25 9.34697 3.77601 9.34697 5.65901C9.34697 5.9253 9.37819 6.18426 9.43615 6.43446C6.55776 6.2918 4.00786 4.93478 2.3 2.87327C2.00271 3.37805 1.83178 3.96329 1.83178 4.58656C1.83178 5.76874 2.44343 6.81266 3.37168 7.4235C2.80388 7.40522 2.27026 7.25232 1.80353 6.99702V7.04091C1.80353 8.69201 2.99637 10.0695 4.58086 10.3826C4.28952 10.4602 3.98408 10.5011 3.66896 10.5011C3.446 10.5011 3.22824 10.4806 3.01717 10.4411C3.45789 11.7945 4.73618 12.7806 6.25157 12.8069C5.06617 13.7214 3.57309 14.2664 1.95144 14.2664C1.672 14.2664 1.39627 14.2503 1.125 14.2189C2.65747 15.1868 4.47681 15.75 6.43141 15.75C12.8006 15.75 16.2825 10.5575 16.2825 6.05405C16.2825 5.90774 16.2787 5.75997 16.2721 5.61366C16.9483 5.13229 17.5355 4.53315 17.9985 3.85063L18 3.84843Z" fill="#8A8F98"/>
</g>
<defs>
<clipPath id="clip0_524_561">
<rect width="18" height="18" fill="white"/>
</clipPath>
</defs>
</svg>
